<svg width="339.9" height="36.201" viewBox="0 0 339.9 36.201" xmlns="http://www.w3.org/2000/svg"><g id="svgGroup" stroke-linecap="round" fill-rule="evenodd" font-size="9pt" stroke="#000" stroke-width="0.25mm" fill="#0d349e" style="stroke:#000;stroke-width:0.25mm;fill:#0d349e"><path d="M 194.2 35.6 L 189.7 35.6 L 189.7 0.6 L 196 0.6 L 211.45 29.7 L 211.45 0.6 L 215.95 0.6 L 215.95 35.6 L 209.75 35.6 L 194.2 6.7 L 194.2 35.6 Z M 229.45 35.6 L 224.95 35.6 L 224.95 0.6 L 231.25 0.6 L 246.7 29.7 L 246.7 0.6 L 251.2 0.6 L 251.2 35.6 L 245 35.6 L 229.45 6.7 L 229.45 35.6 Z M 116.95 35.6 L 95.95 35.6 L 95.95 0.6 L 116.95 0.6 L 116.95 4.7 L 100.7 4.7 L 100.7 15.35 L 114.7 15.35 L 114.7 19.35 L 100.7 19.35 L 100.7 31.5 L 116.95 31.5 L 116.95 35.6 Z M 281.2 35.6 L 260.2 35.6 L 260.2 0.6 L 281.2 0.6 L 281.2 4.7 L 264.95 4.7 L 264.95 15.35 L 278.95 15.35 L 278.95 19.35 L 264.95 19.35 L 264.95 31.5 L 281.2 31.5 L 281.2 35.6 Z M 89.95 34.1 L 85.5 36.2 L 81.15 26.7 Q 79.5 23.15 77 21.65 Q 74.5 20.15 70.6 20.15 L 69.85 20.15 L 69.85 35.6 L 65.1 35.6 L 65.1 0.7 Q 67.75 0.45 70.175 0.325 Q 72.6 0.2 75.35 0.2 Q 81.75 0.2 84.975 2.8 Q 88.2 5.4 88.2 9.5 Q 88.2 13.15 86.025 15.375 Q 83.85 17.6 79.75 18.7 Q 81.1 19.3 82.15 20.125 Q 83.2 20.95 84.175 22.325 Q 85.15 23.7 86.15 25.9 L 89.95 34.1 Z M 24.45 1.8 L 23 5.8 Q 21.45 5.05 19.825 4.6 Q 18.2 4.15 16 4.15 Q 12.8 4.15 10.275 5.8 Q 7.75 7.45 6.3 10.55 Q 4.85 13.65 4.85 18.05 Q 4.85 22.25 6.275 25.4 Q 7.7 28.55 10.225 30.3 Q 12.75 32.05 16 32.05 Q 18.45 32.05 20.25 31.45 Q 22.05 30.85 23.75 29.9 L 25.2 33.85 Q 23.35 34.85 20.975 35.525 Q 18.6 36.2 15.45 36.2 Q 10.9 36.2 7.4 34.025 Q 3.9 31.85 1.95 27.825 Q 0 23.8 0 18.25 Q 0 12.9 1.975 8.775 Q 3.95 4.65 7.575 2.325 Q 11.2 0 16.05 0 Q 18.55 0 20.6 0.475 Q 22.65 0.95 24.45 1.8 Z M 146.15 1.8 L 144.7 5.8 Q 143.15 5.05 141.525 4.6 Q 139.9 4.15 137.7 4.15 Q 134.5 4.15 131.975 5.8 Q 129.45 7.45 128 10.55 Q 126.55 13.65 126.55 18.05 Q 126.55 22.25 127.975 25.4 Q 129.4 28.55 131.925 30.3 Q 134.45 32.05 137.7 32.05 Q 140.15 32.05 141.95 31.45 Q 143.75 30.85 145.45 29.9 L 146.9 33.85 Q 145.05 34.85 142.675 35.525 Q 140.3 36.2 137.15 36.2 Q 132.6 36.2 129.1 34.025 Q 125.6 31.85 123.65 27.825 Q 121.7 23.8 121.7 18.25 Q 121.7 12.9 123.675 8.775 Q 125.65 4.65 129.275 2.325 Q 132.9 0 137.75 0 Q 140.25 0 142.3 0.475 Q 144.35 0.95 146.15 1.8 Z M 310.4 1.8 L 308.95 5.8 Q 307.4 5.05 305.775 4.6 Q 304.15 4.15 301.95 4.15 Q 298.75 4.15 296.225 5.8 Q 293.7 7.45 292.25 10.55 Q 290.8 13.65 290.8 18.05 Q 290.8 22.25 292.225 25.4 Q 293.65 28.55 296.175 30.3 Q 298.7 32.05 301.95 32.05 Q 304.4 32.05 306.2 31.45 Q 308 30.85 309.7 29.9 L 311.15 33.85 Q 309.3 34.85 306.925 35.525 Q 304.55 36.2 301.4 36.2 Q 296.85 36.2 293.35 34.025 Q 289.85 31.85 287.9 27.825 Q 285.95 23.8 285.95 18.25 Q 285.95 12.9 287.925 8.775 Q 289.9 4.65 293.525 2.325 Q 297.15 0 302 0 Q 304.5 0 306.55 0.475 Q 308.6 0.95 310.4 1.8 Z M 60.1 34.35 L 55.75 36.1 L 51.85 26.1 L 35.65 26.1 L 31.75 36 L 27.7 34.35 L 41.4 0.6 L 46.6 0.6 L 60.1 34.35 Z M 329.15 35.6 L 324.4 35.6 L 324.4 4.8 L 313.65 4.8 L 313.65 0.6 L 339.9 0.6 L 339.9 4.8 L 329.15 4.8 L 329.15 35.6 Z M 166.15 36.2 Q 162.25 36.2 159.2 34.775 Q 156.15 33.35 154.025 30.875 Q 151.9 28.4 150.775 25.1 Q 149.65 21.8 149.65 18.05 Q 149.65 12.9 151.625 8.825 Q 153.6 4.75 157.3 2.375 Q 161 0 166.15 0 Q 170 0 173.075 1.4 Q 176.15 2.8 178.3 5.3 Q 180.45 7.8 181.575 11.05 Q 182.7 14.3 182.7 18.05 Q 182.7 21.8 181.575 25.1 Q 180.45 28.4 178.3 30.875 Q 176.15 33.35 173.1 34.775 Q 170.05 36.2 166.15 36.2 Z M 166.15 32.1 Q 170 32.1 172.6 30.25 Q 175.2 28.4 176.525 25.225 Q 177.85 22.05 177.85 18.05 Q 177.85 15.35 177.05 12.85 Q 176.25 10.35 174.75 8.375 Q 173.25 6.4 171.075 5.25 Q 168.9 4.1 166.15 4.1 Q 162.5 4.1 159.875 5.95 Q 157.25 7.8 155.875 10.95 Q 154.5 14.1 154.5 18.05 Q 154.5 20.75 155.275 23.275 Q 156.05 25.8 157.55 27.8 Q 159.05 29.8 161.225 30.95 Q 163.4 32.1 166.15 32.1 Z M 43.75 5.3 L 37.15 22.1 L 50.3 22.1 L 43.75 5.3 Z M 69.85 4.4 L 69.85 16.15 L 75.35 16.15 Q 78.95 16.15 81.2 14.55 Q 83.45 12.95 83.45 9.95 Q 83.45 7.45 81.35 5.825 Q 79.25 4.2 75.35 4.2 Q 73.65 4.2 72.3 4.25 Q 70.95 4.3 69.85 4.4 Z" vector-effect="non-scaling-stroke"/></g></svg>