<?xml version="1.0" standalone="no"?>
<!DOCTYPE svg PUBLIC "-//W3C//DTD SVG 20010904//EN"
 "http://www.w3.org/TR/2001/REC-SVG-20010904/DTD/svg10.dtd">
<svg version="1.0" xmlns="http://www.w3.org/2000/svg"
 width="500.000000pt" height="500.000000pt" viewBox="0 0 500.000000 500.000000"
 preserveAspectRatio="xMidYMid meet">

<g transform="translate(0.000000,500.000000) scale(0.100000,-0.100000)"
fill="#000000" stroke="none">
<path d="M951 3210 c-89 -19 -174 -89 -215 -179 -26 -60 -27 -187 -2 -246 12
-27 122 -145 351 -375 183 -184 340 -349 349 -367 49 -98 -20 -228 -131 -249
-66 -12 -111 11 -212 111 l-94 92 16 42 c21 52 21 97 -1 138 -55 103 -195 110
-260 13 -20 -29 -23 -44 -20 -93 4 -50 9 -63 40 -93 41 -42 85 -54 146 -41
l43 9 95 -92 c52 -50 110 -98 129 -106 43 -18 136 -18 178 0 100 42 153 173
112 274 -11 25 -128 150 -354 377 -300 301 -340 346 -355 389 -25 78 -21 143
14 213 62 123 190 178 324 139 50 -15 71 -30 151 -107 50 -49 95 -89 100 -89
4 0 47 38 96 84 107 102 169 131 262 123 145 -13 250 -125 251 -267 0 -80 -25
-139 -84 -197 -43 -43 -44 -43 -114 -43 l-72 0 -32 65 c-17 36 -36 65 -42 65
-6 0 -34 -47 -62 -105 -59 -118 -75 -128 -103 -65 -10 22 -23 40 -30 40 -7 0
-20 -18 -30 -40 -28 -63 -44 -53 -103 66 -31 62 -58 104 -65 102 -7 -2 -26
-31 -44 -64 l-32 -59 -68 -5 c-52 -4 -68 -9 -68 -20 0 -12 17 -16 81 -18 l81
-3 18 41 c10 22 24 40 32 40 7 0 37 -47 65 -105 29 -58 58 -105 65 -105 7 0
22 18 33 40 11 22 26 40 34 40 7 0 21 -18 31 -40 11 -24 24 -40 32 -38 8 2 38
48 66 103 31 58 59 100 67 100 8 0 24 -17 35 -37 l20 -38 91 0 91 0 47 50 c26
28 59 76 73 106 22 49 25 66 21 138 -5 93 -27 144 -85 202 -59 59 -134 89
-223 87 -103 -1 -154 -25 -251 -120 l-78 -76 -78 73 c-43 40 -101 84 -128 96
-58 27 -142 37 -204 24z m11 -1029 c50 -56 31 -143 -38 -176 -92 -43 -193 56
-150 147 36 75 134 90 188 29z"/>
<path d="M1590 2481 c-19 -10 -45 -36 -58 -57 -45 -78 -8 -187 74 -214 74 -25
194 9 163 46 -9 11 -15 10 -35 -3 -32 -21 -97 -20 -130 1 -39 26 -59 81 -45
127 16 53 53 79 110 79 26 0 56 -7 68 -15 18 -13 22 -13 33 0 10 12 6 18 -22
35 -42 25 -112 26 -158 1z"/>
<path d="M1881 2403 c-24 -54 -54 -122 -67 -150 l-24 -53 23 0 c16 0 26 11 39
40 l17 40 75 0 76 0 20 -40 c14 -27 27 -40 41 -40 11 0 19 4 17 8 -1 5 -32 73
-67 150 -82 181 -88 182 -150 45z m105 -38 l24 -55 -65 0 -64 0 31 71 c35 77
32 78 74 -16z"/>
<path d="M2150 2350 c0 -143 1 -150 20 -150 17 0 20 7 20 45 l0 45 48 0 c45 0
49 -2 77 -45 21 -31 37 -45 53 -45 25 0 24 4 -15 56 -29 38 -29 42 2 65 31 25
41 78 23 116 -20 42 -71 63 -155 63 l-73 0 0 -150z m175 85 c30 -29 31 -45 4
-79 -18 -23 -28 -26 -80 -26 l-59 0 0 65 0 65 55 0 c46 0 60 -4 80 -25z"/>
<path d="M2460 2350 l0 -150 105 0 c98 0 105 1 105 20 0 18 -7 20 -85 20 l-85
0 0 45 0 45 75 0 c68 0 75 2 75 20 0 18 -7 20 -75 20 l-75 0 0 45 0 45 85 0
c78 0 85 2 85 20 0 19 -7 20 -105 20 l-105 0 0 -150z"/>
<path d="M2800 2483 c-103 -54 -108 -202 -8 -263 44 -27 122 -27 166 0 28 17
32 23 21 36 -10 12 -15 12 -33 1 -36 -23 -74 -28 -108 -14 -53 23 -73 52 -73
109 0 43 4 53 33 79 37 33 94 39 141 14 25 -12 31 -12 41 0 9 11 6 17 -15 31
-39 26 -122 29 -165 7z"/>
<path d="M3098 2479 c-103 -54 -100 -213 6 -263 81 -38 175 -10 214 64 27 54
28 82 2 135 -38 78 -140 108 -222 64z m155 -39 c55 -43 52 -141 -5 -183 -33
-25 -98 -26 -134 -3 -14 10 -32 34 -41 54 -19 46 -5 101 34 131 35 28 111 29
146 1z"/>
<path d="M3400 2350 c0 -143 1 -150 20 -150 19 0 20 7 20 105 0 58 4 105 8
105 5 0 46 -47 92 -105 116 -147 120 -145 120 45 0 143 -1 150 -20 150 -18 0
-20 -8 -22 -112 l-3 -112 -89 112 c-123 154 -126 153 -126 -38z"/>
<path d="M3750 2351 c0 -144 1 -151 20 -151 19 0 20 7 20 111 l0 110 90 -110
c50 -61 97 -111 105 -111 13 0 15 25 15 150 0 143 -1 150 -20 150 -19 0 -20
-7 -20 -111 l0 -111 -88 109 c-48 59 -95 109 -105 111 -15 3 -17 -10 -17 -147z"/>
<path d="M4100 2350 l0 -150 105 0 c98 0 105 1 105 20 0 18 -7 20 -85 20 l-85
0 0 45 0 44 72 3 c60 2 73 6 76 21 3 15 -6 17 -72 17 l-76 0 0 45 0 44 83 3
c65 2 82 6 82 18 0 12 -19 16 -102 18 l-103 3 0 -151z"/>
<path d="M4440 2482 c-19 -9 -45 -33 -58 -52 -20 -29 -23 -45 -20 -92 6 -87
63 -138 153 -138 44 0 105 22 105 38 0 22 -23 30 -46 15 -51 -33 -133 -14
-160 39 -25 49 -18 96 20 134 28 28 41 34 78 34 24 0 54 -7 66 -16 23 -16 42
-12 42 10 0 20 -62 46 -107 46 -21 0 -54 -8 -73 -18z"/>
<path d="M4640 2480 c0 -17 7 -20 50 -20 l50 0 0 -130 0 -130 25 0 25 0 0 130
0 130 50 0 c43 0 50 3 50 20 0 19 -7 20 -125 20 -118 0 -125 -1 -125 -20z"/>
</g>
</svg>
